Coordinates
version=1
nRows=37
nColumns=34
inDegrees=no

Units are S.I. units (second, meters, Newtons, ...)
If the header above contains a line with 'inDegrees', this indicates whether rotational values are in degrees (yes) or radians (no).

endheader
time	pelvis_tilt	pelvis_list	pelvis_rotation	pelvis_tx	pelvis_ty	pelvis_tz	hip_flexion_r	hip_adduction_r	hip_rotation_r	knee_angle_r	ankle_angle_r	subtalar_angle_r	mtp_angle_r	hip_flexion_l	hip_adduction_l	hip_rotation_l	knee_angle_l	ankle_angle_l	subtalar_angle_l	mtp_angle_l	lumbar_extension	lumbar_bending	lumbar_rotation	arm_flex_r	arm_add_r	arm_rot_r	elbow_flex_r	pro_sup_r	arm_flex_l	arm_add_l	arm_rot_l	elbow_flex_l	pro_sup_l
1.56	0.0455047	0.0194398	-0.0743609	-0.348013	0.951468	-0.544402	0.48586	-0.146542	-0.128198	0.504557	-0.297786	-0.191258	-0.120037	0.458929	-0.216608	-0.294452	0.46652	-0.29233	0.0743701	-0.120034	-0.407286	-0.0463677	-0.0502887	-0.12369	-0.448433	-0.343364	2.1106	1.58515	-0.130579	-0.341032	-0.172181	1.98137	1.4805
1.57	0.0376217	0.0124171	-0.0762417	-0.339735	0.920373	-0.543512	0.552448	-0.126664	-0.094145	0.641344	-0.120891	-0.225295	-0.120032	0.533032	-0.225231	-0.233631	0.612829	-0.105326	0.0425698	-0.120029	-0.398276	-0.0380081	-0.0504239	-0.0899826	-0.442545	-0.307826	2.12882	1.62014	-0.108089	-0.339667	-0.176688	1.99455	1.49075
1.58	0.0270471	0.00569722	-0.0780835	-0.332487	0.890503	-0.542811	0.623086	-0.109021	-0.0660283	0.772415	0.0257964	-0.255435	-0.120028	0.611109	-0.23249	-0.178332	0.752736	0.04911	0.011976	-0.120025	-0.391127	-0.0297331	-0.0493136	-0.0583453	-0.436197	-0.276191	2.13742	1.65036	-0.0846721	-0.337697	-0.181194	1.99841	1.49599
1.59	0.014031	-0.00072829	-0.0798532	-0.326295	0.861875	-0.542284	0.697406	-0.0936713	-0.0438131	0.897486	0.142804	-0.281585	-0.120023	0.692787	-0.238386	-0.12858	0.885923	0.171488	-0.0172436	-0.12002	-0.385856	-0.0215274	-0.0469865	-0.0288262	-0.429449	-0.248446	2.13639	1.67572	-0.0603986	-0.335149	-0.185673	1.99294	1.49618
1.6	-0.00106245	-0.0068531	-0.0814473	-0.320964	0.834988	-0.541923	0.774305	-0.0808025	-0.0273785	1.01583	0.232051	-0.303441	-0.120018	0.776937	-0.242914	-0.0844046	1.01156	0.263711	-0.044601	-0.120015	-0.382639	-0.0133703	-0.0435355	-0.00153864	-0.422501	-0.2245	2.12583	1.69595	-0.0354818	-0.332118	-0.190039	1.97822	1.4912
1.61	-0.0176336	-0.0126705	-0.0826782	-0.316395	0.80989	-0.541736	0.851907	-0.0707249	-0.0164742	1.12633	0.297352	-0.320458	-0.120014	0.861635	-0.246055	-0.0457619	1.1284	0.32965	-0.0692575	-0.120011	-0.381684	-0.005229	-0.0391557	0.0233781	-0.415758	-0.204086	2.10589	1.71074	-0.0103134	-0.328822	-0.194126	1.95439	1.48096
1.62	-0.0349958	-0.0182279	-0.0832936	-0.312662	0.786425	-0.541637	0.927934	-0.0637779	-0.0106849	1.22777	0.344066	-0.33203	-0.120009	0.944563	-0.247804	-0.0123913	1.23505	0.374886	-0.0901361	-0.120006	-0.383097	0.00296241	-0.0341373	0.0458509	-0.409824	-0.18669	2.07681	1.71992	0.0145689	-0.325605	-0.197694	1.92177	1.4655
1.63	-0.052645	-0.0236013	-0.0830451	-0.309562	0.764307	-0.541716	1.00026	-0.0601154	-0.00942553	1.31922	0.378057	-0.337788	-0.120004	1.02362	-0.248289	0.0162993	1.3305	0.405733	-0.106105	-0.120001	-0.386865	0.0113228	-0.0287838	0.0659682	-0.405431	-0.171544	2.03893	1.72372	0.0385468	-0.322909	-0.200482	1.88085	1.44527
1.64	-0.0701633	-0.0289882	-0.0818402	-0.306963	0.743475	-0.541941	1.0674	-0.0595586	-0.0119629	1.4003	0.404528	-0.337872	-0.12	1.09742	-0.24785	0.0412042	1.41445	0.428044	-0.116181	-0.119996	-0.392714	0.0199965	-0.0233149	0.0840181	-0.403308	-0.157693	1.99268	1.72303	0.0609683	-0.321182	-0.202311	1.83228	1.42134
1.65	-0.0873356	-0.0346577	-0.0798495	-0.304762	0.723855	-0.542249	1.12869	-0.0615257	-0.017491	1.4713	0.427228	-0.333015	-0.119995	1.16553	-0.247092	0.0633657	1.48742	0.446306	-0.119742	-0.119992	-0.400249	0.0290849	-0.0177774	0.100456	-0.404045	-0.144107	1.93859	1.7194	0.0811825	-0.320784	-0.203175	1.77689	1.39554
1.66	-0.10412	-0.0408796	-0.0775206	-0.302914	0.705372	-0.542566	1.18425	-0.0651117	-0.0252355	1.53307	0.448254	-0.324436	-0.11999	1.2283	-0.246849	0.0837736	1.55063	0.463279	-0.1167	-0.119987	-0.409037	0.0385913	-0.0120268	0.115809	-0.40797	-0.129819	1.8773	1.71475	0.0985834	-0.321904	-0.203267	1.71562	1.3702
1.67	-0.120572	-0.0478253	-0.0754774	-0.301343	0.688182	-0.542818	1.23476	-0.0692808	-0.0345367	1.58679	0.468355	-0.313558	-0.119986	1.28664	-0.248035	0.103206	1.60567	0.480181	-0.107543	-0.119982	-0.418664	0.0483999	-0.00578994	0.130552	-0.415081	-0.114069	1.80966	1.71077	0.112669	-0.324551	-0.202905	1.64953	1.34743
1.68	-0.136773	-0.0555849	-0.074364	-0.299911	0.672446	-0.542884	1.28114	-0.0731225	-0.0448608	1.6337	0.487494	-0.30171	-0.119981	1.34162	-0.251403	0.122136	1.65412	0.497185	-0.0932347	-0.119978	-0.428797	0.0582188	0.00118838	0.14502	-0.425025	-0.0964024	1.73667	1.70861	0.123102	-0.328591	-0.20239	1.57977	1.32857
1.69	-0.152871	-0.0640122	-0.0746251	-0.298583	0.658103	-0.54269	1.32427	-0.0760602	-0.0557573	1.67495	0.505382	-0.289879	-0.119976	1.3941	-0.257338	0.140712	1.69729	0.513958	-0.07504	-0.119973	-0.439271	0.0676225	0.00899195	0.159364	-0.437133	-0.0766919	1.65949	1.7087	0.129745	-0.333826	-0.201884	1.50751	1.31395
1.7	-0.168973	-0.0727087	-0.0763664	-0.297375	0.645024	-0.542225	1.36488	-0.0779995	-0.066783	1.71151	0.52182	-0.278604	-0.119972	1.44456	-0.265684	0.158772	1.73611	0.530033	-0.0543745	-0.119968	-0.45003	0.0760835	0.0173967	0.173574	-0.450519	-0.0550743	1.57934	1.71087	0.132662	-0.340051	-0.201327	1.43386	1.30293
1.71	-0.185183	-0.0810472	-0.0793017	-0.296404	0.632878	-0.541573	1.40346	-0.0793366	-0.0774482	1.74415	0.536822	-0.267994	-0.119967	1.49307	-0.275731	0.175894	1.77108	0.54497	-0.0327077	-0.119964	-0.461143	0.0830497	0.0258389	0.187535	-0.464236	-0.0318161	1.49746	1.71445	0.132082	-0.347073	-0.200432	1.3598	1.29426
1.72	-0.201471	-0.0883257	-0.0828763	-0.295659	0.621588	-0.540786	1.44034	-0.080813	-0.087216	1.77349	0.550553	-0.257863	-0.119963	1.53939	-0.286354	0.191499	1.80244	0.558391	-0.0114605	-0.119959	-0.472684	0.08805	0.0334929	0.201106	-0.477429	-0.00714324	1.41504	1.71868	0.128334	-0.35469	-0.198758	1.28615	1.28652
1.73	-0.217739	-0.0939089	-0.0864173	-0.29513	0.61114	-0.539947	1.47569	-0.0832199	-0.0955682	1.8	0.563199	-0.247937	-0.119958	1.58318	-0.296344	0.204995	1.8303	0.569996	0.00815902	-0.119954	-0.484714	0.0908089	0.0394711	0.214201	-0.489463	0.0189344	1.33317	1.72289	0.121762	-0.362662	-0.195843	1.21354	1.2786
1.74	-0.233854	-0.0974087	-0.0893384	-0.294837	0.601543	-0.539142	1.50962	-0.0871063	-0.102101	1.82398	0.574849	-0.23806	-0.119953	1.62414	-0.304715	0.215941	1.85475	0.579601	0.0253277	-0.11995	-0.497214	0.091311	0.0430228	0.226818	-0.499954	0.0467244	1.25282	1.7266	0.112647	-0.370664	-0.191382	1.1425	1.26999
1.75	-0.249798	-0.0987547	-0.0912619	-0.294746	0.592806	-0.538415	1.54218	-0.0926088	-0.10661	1.8456	0.585445	-0.228324	-0.119949	1.66218	-0.310884	0.224174	1.8759	0.587171	0.0396643	-0.119945	-0.510078	0.0898125	0.0436749	0.239025	-0.508735	0.0768095	1.17481	1.72942	0.101155	-0.378282	-0.185381	1.07352	1.26093
1.76	-0.265678	-0.0981742	-0.0920394	-0.294822	0.584935	-0.537783	1.57349	-0.0994587	-0.10913	1.8649	0.59481	-0.219065	-0.119944	1.69741	-0.314654	0.229849	1.89388	0.59282	0.051137	-0.11994	-0.523053	0.0867723	0.0412797	0.250877	-0.515752	0.109855	1.09982	1.73107	0.0873407	-0.385015	-0.178241	1.00712	1.25244
1.77	-0.281721	-0.0960942	-0.0917077	-0.295065	0.577877	-0.537242	1.60371	-0.107124	-0.109883	1.88186	0.602714	-0.210771	-0.119939	1.73015	-0.31608	0.233374	1.90887	0.596766	0.0599092	-0.119936	-0.535722	0.0827307	0.0359711	0.262307	-0.520963	0.146342	1.02836	1.73126	0.0711863	-0.390337	-0.170711	0.943854	1.24601
1.78	-0.298262	-0.0929918	-0.0903993	-0.295476	0.571562	-0.536775	1.63307	-0.114981	-0.109185	1.89644	0.608945	-0.203964	-0.119935	1.76086	-0.315346	0.235262	1.92104	0.59925	0.0662245	-0.119931	-0.547519	0.0781789	0.0280941	0.273017	-0.524266	0.186313	0.960897	1.72969	0.0526928	-0.393773	-0.163684	0.884368	1.2431
1.79	-0.31569	-0.0892728	-0.0882733	-0.296039	0.565923	-0.53635	1.66192	-0.122453	-0.107332	1.9086	0.613354	-0.199099	-0.11993	1.79005	-0.312686	0.235982	1.93054	0.600468	0.070357	-0.119926	-0.557785	0.0734574	0.0181502	0.282414	-0.525494	0.229204	0.897864	1.72606	0.0319929	-0.394996	-0.157915	0.829275	1.24468
1.8	-0.334367	-0.0852196	-0.0854738	-0.296732	0.560918	-0.535923	1.69063	-0.129077	-0.104551	1.91839	0.615874	-0.196509	-0.119925	1.81821	-0.308367	0.235866	1.9375	0.600543	0.0725978	-0.119922	-0.565848	0.0687094	0.00677279	0.289622	-0.524456	0.273813	0.839725	1.7203	0.00944851	-0.393887	-0.153746	0.779055	1.25102
1.81	-0.354561	-0.0809917	-0.0821134	-0.297535	0.556518	-0.535446	1.71951	-0.134541	-0.100992	1.92586	0.616538	-0.196365	-0.119921	1.84576	-0.30268	0.235098	1.94202	0.599525	0.0732512	-0.119917	-0.571136	0.0639167	-0.00532873	0.293652	-0.521008	0.318498	0.786937	1.71272	-0.0143453	-0.390556	-0.151001	0.73399	1.26147
1.82	-0.376387	-0.0766819	-0.0782946	-0.298433	0.55271	-0.534867	1.74874	-0.138677	-0.0967792	1.93113	0.615476	-0.198677	-0.119916	1.87294	-0.295935	0.233759	1.94417	0.597419	0.0726255	-0.119912	-0.573312	0.0589934	-0.0175556	0.29381	-0.51508	0.361724	0.73978	1.70407	-0.0387452	-0.385315	-0.14922	0.694224	1.27459
1.83	-0.399746	-0.0723479	-0.0741062	-0.299407	0.549511	-0.534163	1.77827	-0.141434	-0.0920585	1.93427	0.612905	-0.203303	-0.119911	1.8998	-0.288449	0.231901	1.94406	0.594224	0.0710092	-0.119908	-0.572347	0.0538795	-0.0294576	0.289951	-0.506713	0.402466	0.698225	1.69528	-0.0631319	-0.378598	-0.147839	0.659749	1.28849
1.84	-0.42432	-0.0680714	-0.0696622	-0.30045	0.546968	-0.533347	1.80774	-0.142846	-0.0870352	1.93534	0.60909	-0.209971	-0.119907	1.92612	-0.280519	0.229618	1.94176	0.589977	0.0686269	-0.119903	-0.568539	0.0485818	-0.0407142	0.282556	-0.496063	0.440356	0.661857	1.68725	-0.0868965	-0.370871	-0.146333	0.630343	1.30123
1.85	-0.449616	-0.0639796	-0.0651111	-0.301545	0.545135	-0.532449	1.83654	-0.143012	-0.0819804	1.93435	0.604302	-0.2183	-0.119902	1.95148	-0.272394	0.227067	1.93738	0.584778	0.0655964	-0.119898	-0.562455	0.0431805	-0.0510918	0.272637	-0.483384	0.4756	0.629901	1.6806	-0.109403	-0.362557	-0.144343	0.605499	1.31141
1.86	-0.475044	-0.0602316	-0.0606105	-0.302686	0.544042	-0.531505	1.86393	-0.142109	-0.0772058	1.93128	0.598782	-0.227819	-0.119898	1.97528	-0.264267	0.224432	1.93098	0.578781	0.061935	-0.119893	-0.554803	0.037812	-0.0603986	0.261497	-0.468986	0.508663	0.601366	1.6756	-0.129949	-0.353995	-0.141714	0.584425	1.31834
1.87	-0.500006	-0.0569734	-0.0562998	-0.303882	0.543693	-0.530542	1.8891	-0.140396	-0.0730162	1.92611	0.592737	-0.237982	-0.119893	1.99691	-0.2563	0.221867	1.92266	0.572182	0.0576201	-0.119889	-0.546294	0.0326491	-0.0684522	0.250431	-0.453209	0.539849	0.575249	1.67225	-0.147761	-0.345437	-0.13847	0.56612	1.32202
1.88	-0.523969	-0.0543101	-0.0522696	-0.305133	0.544091	-0.529581	1.91136	-0.138204	-0.0696621	1.91885	0.586343	-0.248212	-0.119888	2.01581	-0.248648	0.219435	1.91247	0.565185	0.0526622	-0.119884	-0.537538	0.0278584	-0.0750618	0.240473	-0.436394	0.568938	0.550745	1.67046	-0.162027	-0.337062	-0.134771	0.549516	1.32292
1.89	-0.546508	-0.0522871	-0.0485578	-0.306406	0.545247	-0.528646	1.9302	-0.135878	-0.0673047	1.90954	0.579757	-0.257965	-0.119884	2.03157	-0.241468	0.217107	1.9005	0.557981	0.0471436	-0.119879	-0.528994	0.0235603	-0.0800541	0.232285	-0.418869	0.595122	0.527388	1.67003	-0.172	-0.328994	-0.130891	0.533662	1.32174
1.9	-0.5673	-0.0508805	-0.0451663	-0.307656	0.54717	-0.527754	1.9453	-0.133716	-0.0660006	1.8983	0.573111	-0.266812	-0.119879	2.04391	-0.234923	0.214779	1.88685	0.550731	0.0412166	-0.119875	-0.520971	0.0198097	-0.0833352	0.226207	-0.400951	0.617268	0.505086	1.67042	-0.177119	-0.321318	-0.127197	0.517909	1.31907
1.91	-0.586122	-0.0500051	-0.0420769	-0.308836	0.549848	-0.526922	1.9565	-0.131916	-0.0657048	1.88525	0.566513	-0.274492	-0.119874	2.05267	-0.229154	0.212307	1.87162	0.543567	0.0350718	-0.11987	-0.513653	0.0166022	-0.0849412	0.222372	-0.382951	0.634271	0.484072	1.67069	-0.177099	-0.314096	-0.124075	0.501997	1.31525
1.92	-0.60283	-0.0495389	-0.0392565	-0.30991	0.553244	-0.526167	1.96379	-0.130568	-0.0662885	1.87054	0.560042	-0.280924	-0.11987	2.0578	-0.224257	0.209544	1.85497	0.536586	0.0288939	-0.119865	-0.507137	0.0139049	-0.0850505	0.22083	-0.365188	0.64538	0.464785	1.66965	-0.171945	-0.307379	-0.121803	0.486044	1.31035
